<svg xmlns="http://www.w3.org/2000/svg" xmlns:xlink="http://www.w3.org/1999/xlink" version="1.1" x="0px" y="0px" viewBox="0 0 100 125" enable-background="new 0 0 100 100" xml:space="preserve"><g><path d="M50.473,2.963C24.23,2.963,2.88,24.313,2.88,50.556v47.593h47.593c26.242,0,47.593-21.351,47.593-47.593   C98.065,24.313,76.715,2.963,50.473,2.963z M50.473,92.549c-1.176,0-2.337-0.061-3.489-0.155   C26.578,90.713,10.316,74.452,8.636,54.046c-0.095-1.152-0.156-2.313-0.156-3.49c0-23.192,18.8-41.993,41.993-41.993   s41.992,18.8,41.992,41.993S73.665,92.549,50.473,92.549z"/><path d="M74.333,38.408l-14.297-2.077l-6.393-12.955c-0.596-1.207-1.824-1.971-3.17-1.971c-1.345,0-2.574,0.764-3.17,1.97   l-6.395,12.956l-14.295,2.077c-1.332,0.193-2.438,1.126-2.854,2.406s-0.069,2.685,0.895,3.624L35,54.521l-2.443,14.236   c-0.228,1.326,0.317,2.666,1.406,3.457c1.09,0.791,2.532,0.895,3.723,0.27l12.788-6.723l12.785,6.723   c0.517,0.271,1.081,0.406,1.645,0.406c0.732,0,1.462-0.227,2.077-0.676c1.089-0.789,1.634-2.131,1.407-3.457l-2.441-14.236   l10.346-10.084c0.964-0.939,1.311-2.344,0.895-3.624C76.771,39.534,75.665,38.601,74.333,38.408z"/></g><text x="0" y="115" fill="#000000" font-size="5px" font-weight="bold" font-family="'Helvetica Neue', Helvetica, Arial-Unicode, Arial, Sans-serif">Created by Candice McCollough</text><text x="0" y="120" fill="#000000" font-size="5px" font-weight="bold" font-family="'Helvetica Neue', Helvetica, Arial-Unicode, Arial, Sans-serif">from the Noun Project</text></svg>