<svg xmlns="http://www.w3.org/2000/svg" xmlns:xlink="http://www.w3.org/1999/xlink" version="1.1" viewBox="0 0 96 120" x="0px" y="0px"><path d="M22 96c-0.336 0-0.672-0.084-0.98-0.252-0.628-0.356-1.020-1.020-1.020-1.748v-92c0-1.1 0.896-2 2-2h52c1.1 0 2 0.9 2 2v60.236c0 0.696-0.364 1.344-0.956 1.712l-52 31.756c-0.32 0.204-0.684 0.296-1.044 0.296zM24 4v86.428l48-29.32v-57.108h-48z" fill="#000000"/><path d="M37.272 47.364c-0.392 0-0.788-0.112-1.128-0.348-0.708-0.484-1.028-1.364-0.8-2.188l3.564-12.792-9.292-8.564c-0.604-0.564-0.808-1.432-0.508-2.196 0.3-0.772 1.040-1.276 1.864-1.276h11.14l3.444-10.592c0.536-1.648 3.268-1.648 3.804 0l3.444 10.592h11.14c0.82 0 1.56 0.504 1.86 1.264 0.296 0.756 0.1 1.632-0.496 2.196l-9.284 8.68 3.54 11.86c0.244 0.808-0.056 1.684-0.736 2.184s-1.592 0.52-2.304 0.044l-9.004-6.076-9.048 6.808c-0.352 0.276-0.776 0.404-1.2 0.404zM36.092 24l6.424 5.92c0.552 0.508 0.772 1.276 0.572 2.008l-2.308 8.288 5.48-4.124c0.684-0.516 1.612-0.54 2.324-0.064l5.556 3.752-2.292-7.688c-0.216-0.732-0.004-1.512 0.552-2.028l6.492-6.072h-7.528c-0.868 0-1.636-0.564-1.904-1.392l-1.992-6.12-1.992 6.12c-0.268 0.828-1.036 1.392-1.904 1.392l-7.48 0.008z" fill="#000000"/><text x="0" y="111" fill="#000000" font-size="5px" font-weight="bold" font-family="'Helvetica Neue', Helvetica, Arial-Unicode, Arial, Sans-serif">Created by iconsmind.com</text><text x="0" y="116" fill="#000000" font-size="5px" font-weight="bold" font-family="'Helvetica Neue', Helvetica, Arial-Unicode, Arial, Sans-serif">from the Noun Project</text></svg>