<svg xmlns="http://www.w3.org/2000/svg" xmlns:xlink="http://www.w3.org/1999/xlink" version="1.1" x="0px" y="0px" viewBox="0 0 100 100" enable-background="new 0 0 100 100" xml:space="preserve"><path d="M50,28.7c-11.8,0-21.3,9.6-21.3,21.3S38.2,71.3,50,71.3S71.3,61.8,71.3,50S61.8,28.7,50,28.7L50,28.7z M51.5,54.6  c-0.4,0.4-1,0.7-1.5,0.7c-1.2,0-2.2-1.1-2.2-2.2V35.4c0-1.2,1-2.2,2.2-2.2c1.2,0,2.1,1,2.1,2.2V48l5.3-5.3c0.8-0.8,2.2-0.8,3,0  c0.8,0.9,0.8,2.2,0,3.1L51.5,54.6z M50,5C25.1,5,5,25.1,5,50c0,24.9,20.1,45,45,45c24.8,0,45-20.1,45-45C95,25.1,74.8,5,50,5L50,5z   M50,77c-14.9,0-27-12.1-27-27c0-14.9,12.1-27,27-27c14.9,0,27,12.1,27,27C77,64.9,64.9,77,50,77z"></path></svg>